<svg xmlns="http://www.w3.org/2000/svg" viewBox="0 0 900 650" role="img" aria-label="Map preview of Max Fitness Doudlevce in Plzen">
  <rect width="900" height="650" fill="#f4f6f8"/>

  <g fill="#e9edf2">
    <path d="M480 304h116v178H480z"/>
    <path d="M610 148h86v70h-86z"/>
    <path d="M252 402h108v98H252z"/>
    <path d="M66 214h140v78H66z"/>
    <path d="M748 242h94v112h-94z"/>
    <path d="M112 420h112v116H112z"/>
  </g>

  <g fill="none" stroke-linecap="round" stroke-linejoin="round">
    <path d="M-20 86C86 92 162 88 250 70c102-20 182-28 300-12 90 12 184 8 360-38" stroke="#c9d1db" stroke-width="24"/>
    <path d="M-20 86C86 92 162 88 250 70c102-20 182-28 300-12 90 12 184 8 360-38" stroke="#ffffff" stroke-width="16"/>

    <path d="M40 0c8 118 2 210-16 302-18 92-14 188 20 348" stroke="#c9d1db" stroke-width="20"/>
    <path d="M40 0c8 118 2 210-16 302-18 92-14 188 20 348" stroke="#ffffff" stroke-width="13"/>

    <path d="M138 0c-10 96-2 184 24 268 28 92 30 184 4 382" stroke="#c9d1db" stroke-width="18"/>
    <path d="M138 0c-10 96-2 184 24 268 28 92 30 184 4 382" stroke="#ffffff" stroke-width="11"/>

    <path d="M-24 176C114 178 184 164 262 134c76-30 166-42 268-26 110 17 198 6 378-54" stroke="#c9d1db" stroke-width="28"/>
    <path d="M-24 176C114 178 184 164 262 134c76-30 166-42 268-26 110 17 198 6 378-54" stroke="#ffffff" stroke-width="19"/>

    <path d="M214-10c20 106 28 204 24 294-4 102-24 206-12 376" stroke="#c9d1db" stroke-width="18"/>
    <path d="M214-10c20 106 28 204 24 294-4 102-24 206-12 376" stroke="#ffffff" stroke-width="11"/>

    <path d="M784 0c-4 92-14 168-34 250-24 102-18 198 24 400" stroke="#c9d1db" stroke-width="22"/>
    <path d="M784 0c-4 92-14 168-34 250-24 102-18 198 24 400" stroke="#ffffff" stroke-width="14"/>

    <path d="M418-10c36 90 48 172 36 246-16 96-58 160-54 304" stroke="#c9d1db" stroke-width="16"/>
    <path d="M418-10c36 90 48 172 36 246-16 96-58 160-54 304" stroke="#ffffff" stroke-width="10"/>

    <path d="M-18 542c130-22 234-20 338 8 142 38 264 26 468-50" stroke="#c9d1db" stroke-width="26"/>
    <path d="M-18 542c130-22 234-20 338 8 142 38 264 26 468-50" stroke="#ffffff" stroke-width="17"/>

    <path d="M346 0c-4 78 14 138 52 196 42 64 76 120 78 224" stroke="#d5dce5" stroke-width="10"/>
    <path d="M560 122c-68 88-92 160-76 238 12 56 2 110-34 166" stroke="#d5dce5" stroke-width="9"/>
    <path d="M626 226c70 14 142 10 252-24" stroke="#d5dce5" stroke-width="9"/>
    <path d="M46 360c130 4 234-2 316-18" stroke="#d5dce5" stroke-width="9"/>
  </g>

  <g fill="#6f7f8f" font-family="Arial, sans-serif" font-size="17">
    <text x="18" y="106" transform="rotate(-84 18 106)">Samarská</text>
    <text x="95" y="610" transform="rotate(-86 95 610)">Edvarda Beneše</text>
    <text x="775" y="590" transform="rotate(-82 775 590)">Radobyčická</text>
    <text x="568" y="43">Doudlevecká lávka</text>
    <text x="388" y="214" transform="rotate(63 388 214)">Železniční</text>
    <text x="545" y="132">Hotel Lions Plzeň</text>
  </g>

  <g font-family="Arial, sans-serif" font-size="16">
    <g fill="#5f748b">
      <circle cx="92" cy="150" r="11" fill="#7fb2ff"/>
      <text x="112" y="156">Shell</text>
      <circle cx="168" cy="226" r="11" fill="#7fb2ff"/>
      <text x="188" y="232">Perníčky od Helenky</text>
      <circle cx="132" cy="372" r="11" fill="#7fb2ff"/>
      <text x="152" y="378">Penny Market</text>
      <circle cx="768" cy="300" r="11" fill="#8abf88"/>
      <text x="788" y="306">Area D</text>
      <circle cx="724" cy="220" r="11" fill="#c58cff"/>
      <text x="744" y="226">Exportfarm</text>
      <circle cx="716" cy="362" r="11" fill="#8aa1b8"/>
      <text x="736" y="368">Max Fitness Doudlevce</text>
      <circle cx="692" cy="566" r="9" fill="#9ba8b6"/>
      <text x="712" y="572">ŠKODA ELECTRIC a.s.</text>
    </g>
  </g>

  <g>
    <circle cx="706" cy="362" r="23" fill="#4285f4" opacity=".2"/>
    <circle cx="706" cy="362" r="13" fill="#4285f4"/>
    <circle cx="706" cy="362" r="5" fill="#fff"/>
  </g>

  <g transform="translate(12 620)" font-family="Arial, sans-serif" font-size="12">
    <text fill="#4285f4">G</text>
    <text x="9" fill="#db4437">o</text>
    <text x="18" fill="#f4b400">o</text>
    <text x="27" fill="#4285f4">g</text>
    <text x="36" fill="#0f9d58">l</text>
    <text x="40" fill="#db4437">e</text>
  </g>
</svg>
